<svg xmlns="http://www.w3.org/2000/svg" viewBox="0 0 299.97 274.13"><defs><style>.cls-1,.cls-6{fill:#fff;}.cls-2{fill:#b5ccb6;}.cls-10,.cls-2,.cls-3,.cls-4,.cls-5,.cls-6,.cls-7,.cls-8,.cls-9{stroke:#000;stroke-linecap:round;stroke-linejoin:round;stroke-width:1.5px;}.cls-3{fill:#adf7f0;}.cls-4{fill:#e5d9cb;}.cls-5{fill:none;}.cls-7{fill:#b4e6fc;}.cls-8{fill:#620d08;}.cls-9{fill:#c42c38;}.cls-10{fill:#e4e1c3;}</style></defs><title>rick-and-morty-doofus-rick-i-do-not-know</title><path d="M148,282.08c-10.82,0-25.95-1.79-36.62-10.32a5.77,5.77,0,0,1-2.09-5.36c.76-4.94,1.41-10.48,1.94-16.46-.08-.32-.39-1.45-.39-1.45-.14-.51-.29-1-.43-1.49l-.11-.37-.44-1.36-.08-.25c-.15-.43-.3-.85-.45-1.23a5.72,5.72,0,0,1,.81-5.54s.89-1.18,2.12-2.83c.27-5.11.48-10.5.61-16.06l-.4-.52a5.75,5.75,0,0,1-.82-5.72l.76-1.91.62-1.57c.06-7.13,0-13.49-.09-18.84-4,3.59-7.77,6.87-11.22,9.9l-.12.1c-6.41,5.65-11.95,10.52-17.54,15.65l-1.06,1c-7.86,7.24-14.64,13.48-22.54,13.48a14.53,14.53,0,0,1-4.86-.84c-10-3.5-10.67-13.45-11.18-20.72-.38-5.4-.34-11.91-.29-19.45.08-11.53.18-25.72-1.17-42.28-2.31,0-4.69-.2-7.1-.47-13.92-1.58-17.15-3.92-23.74-9.54-.85-.73-1.78-1.52-2.84-2.39-3.94-3.24-4.46-6.48-4.19-8.62a7.6,7.6,0,0,1,.48-1.89,7.31,7.31,0,0,1,1.07-4.4,7.8,7.8,0,0,1,6.73-3.64,9.86,9.86,0,0,1,4.22,1,72,72,0,0,1,6.5,3.85l.94.59a8.12,8.12,0,0,1,1-1.36,8.39,8.39,0,0,1,6.43-2.62c3,0,6.27,1.11,10.09,2.4,3.21,1.09,6.8,2.3,9.54,2.52.57,0,1.08,0,1.57,0,12.22.47,14.94,6.31,15.06,11.12a8.41,8.41,0,0,1,0,1,15.11,15.11,0,0,1,3.74,3.9,4.42,4.42,0,0,1,.34.6,5.05,5.05,0,0,1,.36.88,5.45,5.45,0,0,1,.14.54,4,4,0,0,1,.11.69c0,.29,1.72,21.89,2.61,39.19,3.36-2.91,7.33-6.38,11.37-10,2.34-2.09,4.68-4.28,6.93-6.4,7.08-6.67,13.4-12.62,19.68-15a33.3,33.3,0,0,1-1.94-8.73c-8.06-6.76-11.85-17.26-9.05-25.76,1.89-5.74,6.48-9.63,12.67-10.9.05-.22.1-.42.15-.62a12.25,12.25,0,0,1-.74-3.16,20,20,0,0,1-1.54-1.38l-.15-.15c-.38-.39-.74-.79-1.09-1.2l-.13-.16c-.35-.43-.68-.86-1-1.31-.11-.15-.22-.32-.33-.49l-.06-.1c-.17-.27-.32-.51-.46-.75s-.27-.48-.4-.73c0,0-.13-.23-.13-.24l-.08-.18a19.55,19.55,0,0,1-2-8.74,19.79,19.79,0,0,1,10.42-17.42,45.44,45.44,0,0,1-5.43-3.75,6.17,6.17,0,0,1-.46-.43,6.42,6.42,0,0,1-.43-.48,5.54,5.54,0,0,1-.59-1,4.61,4.61,0,0,1-.31-.75,5,5,0,0,1-.25-1.15,4.91,4.91,0,0,1,0-1.08c0-.15,0-.31,0-.46s0-.2.05-.3C115.17,35.68,131.12,18,147,18c.52,0,1,0,1.56.05a32.26,32.26,0,0,1,17.31,6.82,19.19,19.19,0,0,1,4.15-3,21.21,21.21,0,0,1,10.19-2.46,31,31,0,0,1,10.36,1.92,5.76,5.76,0,0,1,2.95,8.47l.78.34a27.74,27.74,0,0,1,14.83,15.71c5.59,15,4,30.65,3.11,36.71a5.89,5.89,0,0,1-.19.78,4.48,4.48,0,0,1-.37.94,5.19,5.19,0,0,1-.46.75,5.42,5.42,0,0,1-.66.75,6,6,0,0,1-.55.49,5.59,5.59,0,0,1-.79.51,5.16,5.16,0,0,1-1,.41,5.72,5.72,0,0,1-.87.2,77.89,77.89,0,0,1-9.95.59h-1.38a142.76,142.76,0,0,1-5.34,27.8,14,14,0,0,1,2.44,12A14.82,14.82,0,0,1,181.49,139a65.35,65.35,0,0,1-4.16,7.9c10,.35,21.72,11.9,38.39,29.38,1.2,1.25,2.36,2.48,3.51,3.67,1.77-18.88,4-38,4.14-39,0-.22.08-.46.13-.69s.07-.24.11-.37A5.88,5.88,0,0,1,224,139a3.94,3.94,0,0,1,.36-.63l.19-.27a12.65,12.65,0,0,1,2.78-2.83v-.49a10.71,10.71,0,0,1-2-5c-.78-7.26,4.55-13.56,12.69-15a19.67,19.67,0,0,1,3.4-.28h.12a68.52,68.52,0,0,0,11.2-3.79c4.67-1.89,8.36-3.37,11.52-3.37a8.1,8.1,0,0,1,3.66.81,6.94,6.94,0,0,1,3.34,3.5c2.83-1.22,5.31-2.45,6.84-3.31a11.43,11.43,0,0,1,5.46-1.54,7.9,7.9,0,0,1,4.8,1.55,7.58,7.58,0,0,1,1.46,1.48,7.7,7.7,0,0,1,4.78,4.92c.8,2.4,1.12,7-5,11.49-4.59,9-21,15.38-31.52,16.5l-2.26.21a3.4,3.4,0,0,1-.07.46c-2.57,12.14-3.52,27-4.35,40.11-1.67,26.43-2.78,43.88-14.09,46.93a13.3,13.3,0,0,1-3.46.46c-9.7,0-19.16-9.8-31.13-22.2-3.27-3.38-6.75-7-10.36-10.49,2.55,30.2,2.29,68.65,2.29,69.1a5.74,5.74,0,0,1-3,5c-10.85,5.93-28,9.76-43.64,9.76Z" class="cls-1" transform="translate(0 -12.96)"/><path d="M147,23c.4,0,.8,0,1.2,0,8.85.64,15.09,5.72,18.33,9.14a14.58,14.58,0,0,1,5.87-5.93,16.21,16.21,0,0,1,7.81-1.86A26.1,26.1,0,0,1,188.84,26a.75.75,0,0,1,0,1.43,45.3,45.3,0,0,0-12,5.26,31.84,31.84,0,0,1,4.33-.3,27,27,0,0,1,11,2.27,22.86,22.86,0,0,1,12.2,12.9c5.17,13.86,3.71,28.53,2.84,34.2,0,0,0,.07,0,.11s0,.08,0,.11l0,.05-.13.14a.63.63,0,0,1-.12.11l0,0s-.09,0-.13,0-.07,0-.11,0a71.16,71.16,0,0,1-9.3.55c-1.92,0-3.92-.06-6-.18-.94,12.9-3.46,26.38-6.6,34.47,2.95,1.66,4.35,5.41,3.41,9.39a9.8,9.8,0,0,1-9.89,7.66H178c-4,10.57-11.28,20-19.34,25.62v2.95l2.09-1.86c4.92-4.42,10-9,15.92-9.12h.18c8.69,0,22.79,14.79,35.25,27.84,4,4.2,7.8,8.19,11.15,11.39,1.8-21.88,5.05-49.3,5.08-49.58,0,0,0,0,0-.06l0-.08a.35.35,0,0,1,.06-.14l0-.05,0,0,0,0a8.32,8.32,0,0,1,3.76-2.92V133a6.46,6.46,0,0,1-2-3.77c-.49-4.57,3.11-8.57,8.57-9.51a14.71,14.71,0,0,1,2.55-.21h.53c4-.67,8.58-2.53,12.66-4.17s7.46-3,9.65-3a3.33,3.33,0,0,1,1.44.28,2.09,2.09,0,0,1,1.09,1.35c.7,2.52-1.22,4.47-3.59,5.88a87.47,87.47,0,0,0,17.34-7.14,6.37,6.37,0,0,1,3-.91,2.87,2.87,0,0,1,1.79.55,2.43,2.43,0,0,1,.94,2h.34a3.09,3.09,0,0,1,3.23,2c.48,1.47.11,3.79-4.31,6.63-2.19,6.82-17,13.65-28,14.83a68.22,68.22,0,0,1-7.22.41c-1.43,0-2.75-.07-4-.17v.66a9.82,9.82,0,0,1,4.42,3.19s0,0,0,0a.69.69,0,0,1,0,.1.38.38,0,0,1,0,.13.36.36,0,0,1,0,.1.76.76,0,0,1,0,.15v.06c-2.64,12.43-3.59,27.48-4.44,40.76-1.42,22.52-2.55,40.31-10.4,42.43a8.21,8.21,0,0,1-2.16.28c-7.58,0-16.91-9.67-27.56-20.7-6.14-6.36-13.05-13.51-20.27-19.44,4,30.32,3.63,81,3.63,81.51a.74.74,0,0,1-.39.65c-9.68,5.29-25.72,9.15-41.24,9.15h0c-12.79,0-25.24-2.62-33.49-9.22a.76.76,0,0,1-.28-.7c.81-5.3,1.5-11.23,2.06-17.64,0-.1-.05-.19-.07-.29q-.21-.81-.42-1.56c0-.17-.1-.35-.14-.52-.16-.56-.31-1.09-.47-1.59,0-.13-.07-.26-.11-.38q-.24-.8-.48-1.5l-.09-.27c-.17-.49-.34-1-.5-1.4a.74.74,0,0,1,.1-.72s1.34-1.76,3.06-4.1c.35-6.16.6-12.71.74-19.5l-.17-.22-1.35-1.73a.77.77,0,0,1-.15-.36.63.63,0,0,1,.05-.38c.21-.54.44-1.1.66-1.68L117,213q.28-.75.6-1.53c.1-.27.21-.54.32-.82l0-.09c.14-13.66-.16-24.61-.39-30.71-7.29,6.58-13.67,12.18-19.33,17.16-6.45,5.67-12,10.58-17.62,15.72l-1.06,1c-7.25,6.68-13.21,12.16-19.16,12.16a9.51,9.51,0,0,1-3.2-.56c-6.38-2.23-7.28-8.19-7.86-16.35-.36-5.22-.32-11.66-.27-19.11.09-11.95.19-26.81-1.33-44.3,0-.05,0-.1,0-.14a.22.22,0,0,0,0-.08v0h0a7.51,7.51,0,0,1,1.37-2.94c-1.63.15-3.35.23-5.14.23a67.76,67.76,0,0,1-7.63-.44c-13-1.46-15.34-3.49-21.06-8.37-.87-.75-1.83-1.56-2.92-2.46-1.75-1.44-2.56-2.83-2.4-4.13a2.79,2.79,0,0,1,.93-1.73,2.33,2.33,0,0,1-.08-2.56,2.8,2.8,0,0,1,2.47-1.26,4.82,4.82,0,0,1,2.09.52c1.33.63,3.59,2,6,3.55,3,1.88,7.07,4.46,8.12,4.55h.15a30.8,30.8,0,0,0,3.14-.34c-1.71-.82-3.21-1.89-3.7-3.1a2.47,2.47,0,0,1,.59-2.74,3.52,3.52,0,0,1,2.74-1c2.15,0,5.09,1,8.49,2.14,3.56,1.2,7.53,2.55,11,2.78h0c.53,0,1,0,1.54,0,7,.27,10.15,2.2,10.26,6.26a4.39,4.39,0,0,1-.64,2.35l.1,1.23a10,10,0,0,1,5.09,4l0,0,.06.14,0,.12s0,0,0,.05c0,.33,2.52,32,3,49.28,2.94-2.51,10.9-9.34,19.24-16.75,2.4-2.13,4.75-4.35,7-6.49,8.36-7.87,15.6-14.69,21.79-14.69h.44a8.38,8.38,0,0,1,2.33.46c-4.49-5.46-5-10.76-5.38-14.74,0-.34-.07-.68-.1-1-7.49-5.32-11.38-14.54-9.07-21.57,1.65-5,6.17-7.89,12.47-7.92a15.17,15.17,0,0,1,1-5.65,7,7,0,0,1-1.07-5.26A15,15,0,0,1,117,95.56l-.12-.13c-.28-.28-.55-.58-.81-.88a.69.69,0,0,0-.11-.13c-.25-.31-.49-.64-.72-1-.11-.15-.2-.31-.3-.46s-.23-.37-.34-.55l-.33-.6,0-.07a0,0,0,0,0,0,0,14.77,14.77,0,0,1,13.17-21.47l.39,0,.74-2.87A59.58,59.58,0,0,1,115.81,60s0-.05,0-.06l-.07-.06,0-.1-.06-.13a.64.64,0,0,1,0-.2s0-.06,0-.09l0,0s0,0,0-.05C119.63,38.89,133.54,23,147,23M136.18,165.68V164a21,21,0,0,1-2.74-1.24l-.9-.49c1.19,1.19,2.39,2.37,3.64,3.43M147,13h0C128.52,13,110.8,32,105.74,57.33c0,.21-.08.42-.1.63s-.06.43-.08.65a10.41,10.41,0,0,0,.08,2.23,10.19,10.19,0,0,0,.48,2,11.1,11.1,0,0,0,1.72,3.21,10.27,10.27,0,0,0,.7.78,9.25,9.25,0,0,0,.91.86l.14.11a24.72,24.72,0,0,0-4.42,28.08l.18.37a3.24,3.24,0,0,0,.17.32c.15.28.3.56.46.83s.36.6.55.9l.06.1c.15.24.3.47.46.7.36.53.77,1.07,1.19,1.59l.26.3.25.3A20.51,20.51,0,0,0,98.21,113.6c-3.23,9.82.55,21.71,9.06,29.79.15,1.11.36,2.32.65,3.59-5.62,3.21-11.09,8.36-17,14l6.81,7.33L90.83,161c-2.22,2.1-4.53,4.27-6.82,6.3l-3.62,3.21c-.88-14.33-2-28.19-2-29.06a9.88,9.88,0,0,0-.24-1.51,8.84,8.84,0,0,0-.26-.94,9.27,9.27,0,0,0-.52-1.32,10.89,10.89,0,0,0-.77-1.37,20.66,20.66,0,0,0-2.94-3.49c-.5-5-3.66-14.11-19.78-14.74-.47,0-1,0-1.54,0a45,45,0,0,1-8.13-2.24c-4.1-1.38-7.94-2.68-11.73-2.68a13.53,13.53,0,0,0-8.25,2.57,50.71,50.71,0,0,0-4.49-2.55,14.84,14.84,0,0,0-6.36-1.47,12.76,12.76,0,0,0-11,6A12.31,12.31,0,0,0,.51,124a12.23,12.23,0,0,0-.41,2c-.35,2.77,0,8.16,6,13.09,1,.85,2,1.64,2.77,2.33,7.57,6.46,11.81,9,26.43,10.71,1,.11,2,.21,3,.28,1,14.5.91,27.07.83,37.41-.05,7.68-.1,14.29.3,19.89.54,7.67,1.44,20.5,14.51,25.09a19.73,19.73,0,0,0,6.52,1.12c9.85,0,17.66-7.19,25.92-14.79l1.07-1c5.54-5.09,11.06-9.95,17.46-15.57l.13-.12,3-2.65c0,2.2,0,4.49,0,6.88l-.27.69-.06.14-.05.14-.65,1.62a10.75,10.75,0,0,0,.82,9.66c-.12,4.38-.28,8.64-.49,12.73-.72,1-1.18,1.57-1.19,1.58a10.67,10.67,0,0,0-1.49,10.32c.13.35.26.71.38,1.09l0,.12,0,.09.4,1.26.1.33.41,1.41.09.33,0,.13v.07c-.51,5.54-1.12,10.66-1.82,15.27a10.78,10.78,0,0,0,3.89,10C120,285.1,136.35,287.08,148,287.08c16.7,0,34.34-4,46.05-10.38a10.75,10.75,0,0,0,5.59-9.35c0-.38.19-28.77-1.37-56l.8.83,7.23-6.9-7.19,6.94c12.8,13.26,22.91,23.73,34.73,23.73a18.16,18.16,0,0,0,4.77-.63C249.9,232.22,252.44,219,253.4,214c1.56-8.15,2.21-18.33,3-30.11s1.6-25.15,3.64-36.3c11.13-1.56,27.4-7.92,33.43-18,8.25-6.68,6.66-14.13,5.91-16.4a12.69,12.69,0,0,0-6.45-7.44,12.3,12.3,0,0,0-1.52-1.36,12.87,12.87,0,0,0-7.82-2.57,16.27,16.27,0,0,0-7.9,2.18c-.57.32-1.58.85-2.87,1.47a12.4,12.4,0,0,0-2.66-1.79,13.14,13.14,0,0,0-5.87-1.32c-4.13,0-8.21,1.64-13.38,3.72A67.86,67.86,0,0,1,241,109.5a24.41,24.41,0,0,0-3.87.36c-10.63,1.84-17.86,10.62-16.8,20.43a15,15,0,0,0,.93,3.83c-.27.33-.54.67-.79,1l-.32.45a9.58,9.58,0,0,0-.73,1.28,9.26,9.26,0,0,0-.57,1.43c-.07.21-.13.42-.19.63a10.85,10.85,0,0,0-.26,1.36c-.09.79-1.59,13.46-3.1,28.29-12-12.45-21.61-21.48-30.43-25.05.06-.12.12-.23.17-.35a19.87,19.87,0,0,0,12.84-14.29,19.24,19.24,0,0,0-1.84-14,148.34,148.34,0,0,0,4.34-22c2.66-.08,5.18-.28,7.51-.58a10.79,10.79,0,0,0,1.77-.4,9.34,9.34,0,0,0,1.68-.67,9.58,9.58,0,0,0,1.65-1,11.89,11.89,0,0,0,1-.88,11.4,11.4,0,0,0,1-1.11,10.17,10.17,0,0,0,1.12-1.77,9.56,9.56,0,0,0,.62-1.56,9.91,9.91,0,0,0,.38-1.61c1-6.43,2.64-23.14-3.36-39.2a32.69,32.69,0,0,0-14.43-17v0a10.73,10.73,0,0,0-7.15-10.45,36,36,0,0,0-12-2.21,26.15,26.15,0,0,0-12.57,3.06c-.68.37-1.33.77-2,1.2A36.3,36.3,0,0,0,148.87,13q-1-.06-1.92-.06Z" class="cls-1" transform="translate(0 -12.96)"/><path d="M48.52,145.51c2.81,4.68,17.78,3.74,19.11-3.23C62.24,134.24,49.86,139.05,48.52,145.51Z" class="cls-2" transform="translate(0 -12.96)"/><path d="M229.09,141.58c3.66,3.85,17.38,5.49,21,.7C247,137.73,233.16,135.51,229.09,141.58Z" class="cls-2" transform="translate(0 -12.96)"/><rect width="11.05" height="18.09" x="51.91" y="135.57" class="cls-3" transform="matrix(1, -0.08, 0.08, 1, -11.74, -7.72)"/><path d="M53.42,128.8c-8.27.34-20.32-7.3-23.17-4.19s5.62,6.15,8.47,6.33S53.42,128.8,53.42,128.8Z" class="cls-4" transform="translate(0 -12.96)"/><path d="M63,134.33c.14,5-10.56,8.89-26.47,7.09-14.69-1.66-15.4-3.93-23.58-10.66-4.29-3.53-.82-5.17-.82-5.17-1.92-1.49-.18-4.25,3-2.74s12.29,8,14.34,8.18,15.33-2.56,24-2.23C60.28,129.07,62.87,130.94,63,134.33Z" class="cls-4" transform="translate(0 -12.96)"/><path d="M12.08,125.59c1.78-1,10.51,6.87,14,8.29s16.12,0,16.12,0" class="cls-5" transform="translate(0 -12.96)"/><rect width="12.5" height="24.59" x="233.03" y="115.18" class="cls-3"/><path d="M242,120.26c9.76-1.62,22.94-10.15,24.06-6.09,1.07,3.87-5.62,6.48-9.16,7.48C252,124.71,247,123.73,242,120.26Z" class="cls-4" transform="translate(0 -12.96)"/><path d="M257.43,137c11.69-1.24,25.79-8.35,27.46-14.57,4.28-2.67,4.63-4.7,4.23-5.9s-1.8-1.76-3.69-1.38c.6-2.54-1.67-3.41-4.55-1.8s-15.84,8.08-24,8.28-12.9-2.07-17.91-1.2c-4.79.83-8.42,4.34-7.95,8.69S239.25,139,257.43,137Z" class="cls-4" transform="translate(0 -12.96)"/><path d="M285.43,115.17c-3.41.87-12.86,9.18-27,10.87" class="cls-5" transform="translate(0 -12.96)"/><path d="M284.89,122.45c0-2.87-2.83-2.37-7.86,1a35.88,35.88,0,0,1-19.25,6" class="cls-5" transform="translate(0 -12.96)"/><path d="M237,126.4c2.6,2.67,8.62,2.2,11.36,1" class="cls-5" transform="translate(0 -12.96)"/><rect width="20.98" height="36.49" x="136.93" y="135.56" class="cls-4"/><path d="M117,249.45c-.53,6.19-1.22,12.2-2.07,17.82,18,14.44,56.8,9.36,73.91,0,0,0,.4-52.93-3.88-83.27,21.26,16.84,39,44.1,50.79,40.9,12-3.24,7.49-50.52,14.3-82.62-3.6,4.79-17.32,3.15-21-.7,0,0-3.42,28.75-5.21,51.11-13.64-12.7-35.82-40.36-47.18-40.1s-19.65,17.77-31.15,17.91c-11,.14-17-15.71-25.66-16.17-7.62-.4-17.64,11.13-28.73,21-10.6,9.41-20.45,17.77-20.45,17.77-.4-17-3.08-50.81-3.08-50.81-1.33,7-16.3,7.91-19.11,3.23,2.48,28.49.65,49.93,1.6,63.43.59,8.35,1.53,13.65,7.35,15.69,6.92,2.43,13.59-4.08,22.67-12.42,10.93-10,22.18-19.52,38.15-34,.33,8,.59,19.55.45,32.48-.64,1.65-1.24,3.18-1.79,4.54l1.69,2.16c-.14,6.53-.38,13.29-.76,20-1.82,2.47-3.2,4.29-3.2,4.29A73.08,73.08,0,0,1,117,249.45Z" class="cls-6" transform="translate(0 -12.96)"/><path d="M129,181.86c-2.4,8.16-8.42,24.46-12,33.42a116.47,116.47,0,0,1,8.29,11.49c-2.94,4.95-10.56,15-10.56,15,3.61,9.49,6.71,29.51,6.71,29.51" class="cls-5" transform="translate(0 -12.96)"/><path d="M164.09,182.62c2.32,10,12.65,36.09,12.65,36.09l-10.42,10.42,8.46,17.38L161.4,275.37" class="cls-5" transform="translate(0 -12.96)"/><path d="M130.32,274.36a81.49,81.49,0,0,0,24.45,1.69c2.68-34.84,6.63-81,3.4-111.8-4,3.38-8,6.2-12.62,6.25a14.13,14.13,0,0,1-8.74-3.31C138.87,195.23,134.33,244.28,130.32,274.36Z" class="cls-3" transform="translate(0 -12.96)"/><path d="M223.88,192.69a55.61,55.61,0,0,0,0,5.79" class="cls-3" transform="translate(0 -12.96)"/><path d="M185,184c-1.47-1.65-2.8-2.89-2.8-2.89" class="cls-3" transform="translate(0 -12.96)"/><path d="M70.71,193.09v5.13" class="cls-3" transform="translate(0 -12.96)"/><path d="M206.5,81.63c-26.06,3.42-75.11-9.8-90.22-22.2C154.24,37.06,184.63,43.19,206.5,81.63Z" class="cls-7" transform="translate(0 -12.96)"/><path d="M191,72.4c0,16.57-3.33,35.69-7.21,45.18,6.82,2.9,4.67,16.57-6.29,15.9-7.09,19.25-26.6,37.83-43.71,28.6-15.88-8.56-15.63-18.21-16.3-24.21-13.28-9.16-13.64-28.85,3.47-28.31A14.21,14.21,0,0,1,122,103c-1.51-1.47-2-5.62.27-8.29s5.88-22.86,5.88-22.86l4.68-18.17s17.11-15,30.6-11,23.93,4,27.54,14.83S191,72.4,191,72.4Z" class="cls-4" transform="translate(0 -12.96)"/><path d="M117.49,137.87a19.53,19.53,0,0,0,4.72,2.25" class="cls-5" transform="translate(0 -12.96)"/><path d="M155.53,117.31c6,1,9.73,6.66,8.56,13.9s-7,11.76-11,13.63" class="cls-5" transform="translate(0 -12.96)"/><path d="M183.79,117.58a28.23,28.23,0,0,0-4.46-1.7" class="cls-5" transform="translate(0 -12.96)"/><path d="M177.5,133.48a6.59,6.59,0,0,1-3.61-.93" class="cls-5" transform="translate(0 -12.96)"/><path d="M152.33,111.07c4.18,3.3,13.36,2.94,17.55-2.85" class="cls-5" transform="translate(0 -12.96)"/><path d="M122,103a8.78,8.78,0,0,0,6,1.82" class="cls-5" transform="translate(0 -12.96)"/><path d="M136.91,94.14c-4.19,4.72-8.91,18.18-5,20.76,3.08,2,9.54-10.38,9.54-10.38" class="cls-5" transform="translate(0 -12.96)"/><circle cx="158.58" cy="78.49" r="15.44" class="cls-6"/><circle cx="158.58" cy="78.49" r="15.44" class="cls-5"/><circle cx="161.1" cy="80.56" r="1.92"/><circle cx="127.42" cy="72.1" r="14.03" class="cls-6"/><circle cx="119.89" cy="66.93" r="1.74"/><path d="M114.93,91.42a14,14,0,0,0,20.41,5.21,14,14,0,0,0-20.41-5.21Z" class="cls-4" transform="translate(0 -12.96)"/><path d="M165.47,36.85c2.27-9.36,10.69-14.57,23.12-10.16-14.7,4.28-18.71,11.36-18.71,11.36Z" class="cls-7" transform="translate(0 -12.96)"/><path d="M144.46,97.65a15.41,15.41,0,0,0,23.33,6.17,15.39,15.39,0,0,0-23.33-6.17Z" class="cls-4" transform="translate(0 -12.96)"/><path d="M206.5,81.63a186.77,186.77,0,0,0-23.57-10.18l-1.37-11.61-6.61,9a208.47,208.47,0,0,0-22.62-5.52L151.17,50l-7.36,11.94a249.21,249.21,0,0,0-27.53-2.46c4.28-21.38,18.85-36.62,31.81-35.68s20.32,11.89,20.32,11.89c16.44-6.41,30.74,0,35.29,12.17S207.75,73.47,206.5,81.63Z" class="cls-7" transform="translate(0 -12.96)"/><path d="M127.42,60.06c.22-10.92,5.3-18.94,12-25.35" class="cls-5" transform="translate(0 -12.96)"/><path d="M198.39,77.69c.49-2.22.76-11.71.76-11.71" class="cls-5" transform="translate(0 -12.96)"/><path d="M147.65,64.33c15.59,2,20.18,14.53,25.22,12.3s-8.65-16.39-24.15-18.09S125.37,62.06,126.13,65,134.81,62.71,147.65,64.33Z" class="cls-7" transform="translate(0 -12.96)"/><path d="M159.19,128.54c-.55,8.87-11.76,16.77-29.34,10.89s-19.45-19.05-16.46-23.32c3.79-5.44,9.08-1.85,14.93,2.62,4.87,3.72,13.09,3.19,18,1.32C151.84,118,159.66,121,159.19,128.54Z" class="cls-8" transform="translate(0 -12.96)"/><path d="M153.71,137s-5.42-7.75-11.25-6c-1.38.43-1.7,1.32-1.25,1.91s1.17.49,2.27.5c3.51,0,3.9,5.52,3.9,5.52Z" class="cls-9" transform="translate(0 -12.96)"/><path d="M151.19,133.13c-1.88,0-3.39,3-3.39,6.78,0,.25,0,.49,0,.73a17.76,17.76,0,0,0,6.51-3.24C153.84,134.9,152.62,133.13,151.19,133.13Z" class="cls-10" transform="translate(0 -12.96)"/><path d="M147.75,140.65c-.25-3.25-1.65-5.75-3.34-5.75s-3.32,2.91-3.39,6.55A24.75,24.75,0,0,0,147.75,140.65Z" class="cls-10" transform="translate(0 -12.96)"/><path d="M129.85,139.43a44.83,44.83,0,0,0,4.62,1.27c0-.19,0-.39,0-.58,0-3.75-1.46-6.79-3.27-6.79-1.58,0-2.9,2.34-3.2,5.44C128.61,139,129.22,139.22,129.85,139.43Z" class="cls-10" transform="translate(0 -12.96)"/><path d="M141,141.45c-.13-3.5-1.54-6.27-3.26-6.27s-2.92,2.39-3.2,5.53A33.88,33.88,0,0,0,141,141.45Z" class="cls-10" transform="translate(0 -12.96)"/><path d="M127.86,138.7a14.27,14.27,0,0,0,.1-1.63c0-3.75-1.46-6.79-3.27-6.79-1.53,0-2.81,2.2-3.17,5.16A33.49,33.49,0,0,0,127.86,138.7Z" class="cls-10" transform="translate(0 -12.96)"/><path d="M121.33,135.31a13.57,13.57,0,0,0,.1-1.59c0-3.75-1.47-6.79-3.27-6.79-1.09,0-2.06,1.13-2.65,2.85A23.52,23.52,0,0,0,121.33,135.31Z" class="cls-10" transform="translate(0 -12.96)"/><path d="M134.9,121.27a13.92,13.92,0,0,1-6.58-2.54,56.73,56.73,0,0,0-4.74-3.35c-1.79,7.7,2,11.84,8.68,14Z" class="cls-10" transform="translate(0 -12.96)"/><path d="M152.2,119.66a10.44,10.44,0,0,0-5.84.39,24.69,24.69,0,0,1-10.42,1.35l0,8.67C142.3,132.63,148,130.29,152.2,119.66Z" class="cls-10" transform="translate(0 -12.96)"/></svg>